<mxfile host="app.diagrams.net" agent="Mozilla/5.0 (Windows NT 10.0; Win64; x64) AppleWebKit/537.36 (KHTML, like Gecko) Chrome/128.0.0.0 Safari/537.36" version="24.7.8" pages="2">
  <diagram name="DIAGRAMA DE SECUENCIA" id="RTm_5g6qFB3vlYDFYJ1t">
    <mxGraphModel dx="35" dy="614" grid="1" gridSize="10" guides="1" tooltips="1" connect="1" arrows="1" fold="1" page="1" pageScale="1" pageWidth="827" pageHeight="1169" math="0" shadow="0">
      <root>
        <mxCell id="0" />
        <mxCell id="1" parent="0" />
        <mxCell id="gAW7ZAdqfgTZ7-sBigax-36" value="PROYECT ADMIN" style="shape=umlLifeline;perimeter=lifelinePerimeter;whiteSpace=wrap;html=1;container=1;dropTarget=0;collapsible=0;recursiveResize=0;outlineConnect=0;portConstraint=eastwest;newEdgeStyle={&quot;edgeStyle&quot;:&quot;elbowEdgeStyle&quot;,&quot;elbow&quot;:&quot;vertical&quot;,&quot;curved&quot;:0,&quot;rounded&quot;:0};" parent="1" vertex="1">
          <mxGeometry x="860" y="80" width="100" height="300" as="geometry" />
        </mxCell>
        <mxCell id="gAW7ZAdqfgTZ7-sBigax-37" value="TAREA" style="shape=umlLifeline;perimeter=lifelinePerimeter;whiteSpace=wrap;html=1;container=1;dropTarget=0;collapsible=0;recursiveResize=0;outlineConnect=0;portConstraint=eastwest;newEdgeStyle={&quot;edgeStyle&quot;:&quot;elbowEdgeStyle&quot;,&quot;elbow&quot;:&quot;vertical&quot;,&quot;curved&quot;:0,&quot;rounded&quot;:0};" parent="1" vertex="1">
          <mxGeometry x="980" y="80" width="100" height="300" as="geometry" />
        </mxCell>
        <mxCell id="gAW7ZAdqfgTZ7-sBigax-45" value="" style="rounded=0;dashed=0;" parent="1" vertex="1">
          <mxGeometry x="905" y="140" width="10" height="230" as="geometry" />
        </mxCell>
        <mxCell id="gAW7ZAdqfgTZ7-sBigax-46" value="SUBTAREA" style="shape=umlLifeline;perimeter=lifelinePerimeter;whiteSpace=wrap;html=1;container=1;dropTarget=0;collapsible=0;recursiveResize=0;outlineConnect=0;portConstraint=eastwest;newEdgeStyle={&quot;edgeStyle&quot;:&quot;elbowEdgeStyle&quot;,&quot;elbow&quot;:&quot;vertical&quot;,&quot;curved&quot;:0,&quot;rounded&quot;:0};" parent="1" vertex="1">
          <mxGeometry x="1100" y="80" width="100" height="300" as="geometry" />
        </mxCell>
        <mxCell id="gAW7ZAdqfgTZ7-sBigax-48" value="" style="rounded=0;dashed=0;" parent="1" vertex="1">
          <mxGeometry x="1025" y="140" width="10" height="85" as="geometry" />
        </mxCell>
        <mxCell id="gAW7ZAdqfgTZ7-sBigax-49" value="&lt;div style=&quot;text-align: left;&quot;&gt;&lt;span style=&quot;font-size: 12px; background-color: rgb(251, 251, 251);&quot;&gt;Cambiar Fecha&lt;/span&gt;&lt;/div&gt;" style="html=1;verticalAlign=bottom;startArrow=oval;startFill=1;endArrow=block;startSize=8;curved=0;rounded=0;" parent="1" target="gAW7ZAdqfgTZ7-sBigax-37" edge="1">
          <mxGeometry x="-0.0345" width="60" relative="1" as="geometry">
            <mxPoint x="915" y="150" as="sourcePoint" />
            <mxPoint x="1060" y="150" as="targetPoint" />
            <mxPoint as="offset" />
            <Array as="points" />
          </mxGeometry>
        </mxCell>
        <mxCell id="gAW7ZAdqfgTZ7-sBigax-50" value="&lt;span style=&quot;text-wrap: nowrap;&quot;&gt;ACTUALIZACIONES&lt;/span&gt;" style="shape=umlLifeline;perimeter=lifelinePerimeter;whiteSpace=wrap;html=1;container=1;dropTarget=0;collapsible=0;recursiveResize=0;outlineConnect=0;portConstraint=eastwest;newEdgeStyle={&quot;edgeStyle&quot;:&quot;elbowEdgeStyle&quot;,&quot;elbow&quot;:&quot;vertical&quot;,&quot;curved&quot;:0,&quot;rounded&quot;:0};" parent="1" vertex="1">
          <mxGeometry x="1290" y="80" width="100" height="300" as="geometry" />
        </mxCell>
        <mxCell id="gAW7ZAdqfgTZ7-sBigax-52" value="" style="rounded=0;dashed=0;" parent="1" vertex="1">
          <mxGeometry x="1335" y="160" width="10" height="190" as="geometry" />
        </mxCell>
        <mxCell id="gAW7ZAdqfgTZ7-sBigax-53" value="&lt;span style=&quot;font-size: 12px; background-color: rgb(251, 251, 251);&quot;&gt;Actualiza Fecha Tarea&lt;/span&gt;" style="html=1;verticalAlign=bottom;startArrow=oval;startFill=1;endArrow=block;startSize=8;curved=0;rounded=0;" parent="1" target="gAW7ZAdqfgTZ7-sBigax-50" edge="1">
          <mxGeometry x="-0.0345" width="60" relative="1" as="geometry">
            <mxPoint x="1035" y="170" as="sourcePoint" />
            <mxPoint x="1150" y="170" as="targetPoint" />
            <mxPoint as="offset" />
            <Array as="points" />
          </mxGeometry>
        </mxCell>
        <mxCell id="gAW7ZAdqfgTZ7-sBigax-57" value="&lt;span style=&quot;font-size: 12px; background-color: rgb(251, 251, 251);&quot;&gt;Actualizacion&lt;/span&gt;" style="html=1;verticalAlign=bottom;startArrow=classicThin;startFill=1;endArrow=none;startSize=8;curved=0;rounded=0;dashed=1;endFill=0;" parent="1" target="gAW7ZAdqfgTZ7-sBigax-50" edge="1">
          <mxGeometry x="-0.0345" width="60" relative="1" as="geometry">
            <mxPoint x="1030" y="200" as="sourcePoint" />
            <mxPoint x="1265" y="200" as="targetPoint" />
            <mxPoint as="offset" />
            <Array as="points" />
          </mxGeometry>
        </mxCell>
        <mxCell id="gAW7ZAdqfgTZ7-sBigax-58" value="&lt;span style=&quot;text-wrap: nowrap;&quot;&gt;NOTIFICACIONES&lt;/span&gt;" style="shape=umlLifeline;perimeter=lifelinePerimeter;whiteSpace=wrap;html=1;container=1;dropTarget=0;collapsible=0;recursiveResize=0;outlineConnect=0;portConstraint=eastwest;newEdgeStyle={&quot;edgeStyle&quot;:&quot;elbowEdgeStyle&quot;,&quot;elbow&quot;:&quot;vertical&quot;,&quot;curved&quot;:0,&quot;rounded&quot;:0};" parent="1" vertex="1">
          <mxGeometry x="1420" y="80" width="100" height="300" as="geometry" />
        </mxCell>
        <mxCell id="gAW7ZAdqfgTZ7-sBigax-62" value="" style="rounded=0;dashed=0;" parent="1" vertex="1">
          <mxGeometry x="1465" y="220" width="10" height="50" as="geometry" />
        </mxCell>
        <mxCell id="gAW7ZAdqfgTZ7-sBigax-65" value="" style="rounded=0;dashed=0;" parent="1" vertex="1">
          <mxGeometry x="1475" y="230" width="10" height="35" as="geometry" />
        </mxCell>
        <mxCell id="gAW7ZAdqfgTZ7-sBigax-66" style="edgeStyle=orthogonalEdgeStyle;rounded=0;orthogonalLoop=1;jettySize=auto;html=1;entryX=1;entryY=0.75;entryDx=0;entryDy=0;" parent="1" source="gAW7ZAdqfgTZ7-sBigax-65" target="gAW7ZAdqfgTZ7-sBigax-65" edge="1">
          <mxGeometry relative="1" as="geometry">
            <Array as="points">
              <mxPoint x="1530" y="247" />
              <mxPoint x="1530" y="256" />
            </Array>
          </mxGeometry>
        </mxCell>
        <mxCell id="gAW7ZAdqfgTZ7-sBigax-68" value="&lt;span style=&quot;color: rgba(0, 0, 0, 0); font-family: monospace; font-size: 0px; text-align: start; background-color: rgb(251, 251, 251);&quot;&gt;%3CmxGraphModel%3E%3Croot%3E%3CmxCell%20id%3D%220%22%2F%3E%3CmxCell%20id%3D%221%22%20parent%3D%220%22%2F%3E%3CmxCell%20id%3D%222%22%20value%3D%22enviarNotificacion%22%20style%3D%22text%3Bhtml%3D1%3Balign%3Dcenter%3BverticalAlign%3Dmiddle%3Bresizable%3D0%3Bpoints%3D%5B%5D%3Bautosize%3D1%3BstrokeColor%3Dnone%3BfillColor%3Dnone%3B%22%20vertex%3D%221%22%20parent%3D%221%22%3E%3CmxGeometry%20x%3D%22890%22%20y%3D%22710%22%20width%3D%22120%22%20height%3D%2230%22%20as%3D%22geometry%22%2F%3E%3C%2FmxCell%3E%3C%2Froot%3E%3C%2FmxGraphModel%3E&lt;/span&gt;" style="edgeLabel;html=1;align=center;verticalAlign=middle;resizable=0;points=[];" parent="gAW7ZAdqfgTZ7-sBigax-66" vertex="1" connectable="0">
          <mxGeometry x="-0.0071" y="-1" relative="1" as="geometry">
            <mxPoint x="21" as="offset" />
          </mxGeometry>
        </mxCell>
        <mxCell id="gAW7ZAdqfgTZ7-sBigax-70" value="&lt;div style=&quot;text-align: start;&quot;&gt;&lt;font face=&quot;monospace&quot; color=&quot;rgba(0, 0, 0, 0)&quot;&gt;&lt;span style=&quot;font-size: 0px; background-color: rgb(251, 251, 251);&quot;&gt;e&lt;/span&gt;&lt;/font&gt;&lt;/div&gt;" style="edgeLabel;html=1;align=center;verticalAlign=middle;resizable=0;points=[];" parent="gAW7ZAdqfgTZ7-sBigax-66" vertex="1" connectable="0">
          <mxGeometry x="-0.0338" y="-1" relative="1" as="geometry">
            <mxPoint as="offset" />
          </mxGeometry>
        </mxCell>
        <mxCell id="gAW7ZAdqfgTZ7-sBigax-67" value="&lt;div style=&quot;text-align: left;&quot;&gt;&lt;span style=&quot;font-size: 12px; background-color: rgb(251, 251, 251);&quot;&gt;Notificacion actualizacion&lt;/span&gt;&lt;/div&gt;" style="html=1;verticalAlign=bottom;startArrow=oval;startFill=1;endArrow=block;startSize=8;curved=0;rounded=0;entryX=0.313;entryY=0.491;entryDx=0;entryDy=0;entryPerimeter=0;" parent="1" target="gAW7ZAdqfgTZ7-sBigax-62" edge="1">
          <mxGeometry x="-0.0345" width="60" relative="1" as="geometry">
            <mxPoint x="915" y="241.73000000000002" as="sourcePoint" />
            <mxPoint x="1540" y="242" as="targetPoint" />
            <mxPoint as="offset" />
          </mxGeometry>
        </mxCell>
        <mxCell id="gAW7ZAdqfgTZ7-sBigax-71" value="&lt;font style=&quot;font-size: 9px;&quot;&gt;Envio de notificaciones&lt;/font&gt;" style="text;html=1;align=center;verticalAlign=middle;resizable=0;points=[];autosize=1;strokeColor=none;fillColor=none;" parent="1" vertex="1">
          <mxGeometry x="1520" y="235" width="120" height="30" as="geometry" />
        </mxCell>
        <mxCell id="gAW7ZAdqfgTZ7-sBigax-72" value="" style="rounded=0;dashed=0;" parent="1" vertex="1">
          <mxGeometry x="1145" y="260" width="10" height="90" as="geometry" />
        </mxCell>
        <mxCell id="gAW7ZAdqfgTZ7-sBigax-73" value="&lt;div style=&quot;text-align: left;&quot;&gt;&lt;span style=&quot;font-size: 12px; background-color: rgb(251, 251, 251);&quot;&gt;Cambiar Fecha&lt;/span&gt;&lt;/div&gt;" style="html=1;verticalAlign=bottom;startArrow=oval;startFill=1;endArrow=block;startSize=8;curved=0;rounded=0;" parent="1" target="gAW7ZAdqfgTZ7-sBigax-46" edge="1">
          <mxGeometry x="-0.0345" width="60" relative="1" as="geometry">
            <mxPoint x="910" y="280" as="sourcePoint" />
            <mxPoint x="1025" y="280" as="targetPoint" />
            <mxPoint as="offset" />
            <Array as="points" />
          </mxGeometry>
        </mxCell>
        <mxCell id="gAW7ZAdqfgTZ7-sBigax-74" value="&lt;span style=&quot;font-size: 12px; background-color: rgb(251, 251, 251);&quot;&gt;ActualizaFechaSubtarea&lt;/span&gt;" style="html=1;verticalAlign=bottom;startArrow=oval;startFill=1;endArrow=block;startSize=8;curved=0;rounded=0;" parent="1" target="gAW7ZAdqfgTZ7-sBigax-50" edge="1">
          <mxGeometry x="-0.0345" width="60" relative="1" as="geometry">
            <mxPoint x="1152.5" y="290" as="sourcePoint" />
            <mxPoint x="1387.5" y="290" as="targetPoint" />
            <mxPoint as="offset" />
            <Array as="points" />
          </mxGeometry>
        </mxCell>
        <mxCell id="gAW7ZAdqfgTZ7-sBigax-75" value="&lt;span style=&quot;font-size: 12px; background-color: rgb(251, 251, 251);&quot;&gt;Actualizacion&lt;/span&gt;" style="html=1;verticalAlign=bottom;startArrow=classicThin;startFill=1;endArrow=none;startSize=8;curved=0;rounded=0;dashed=1;endFill=0;" parent="1" target="gAW7ZAdqfgTZ7-sBigax-50" edge="1">
          <mxGeometry x="-0.0345" width="60" relative="1" as="geometry">
            <mxPoint x="1145" y="310" as="sourcePoint" />
            <mxPoint x="1375" y="310" as="targetPoint" />
            <mxPoint as="offset" />
            <Array as="points" />
          </mxGeometry>
        </mxCell>
        <mxCell id="gAW7ZAdqfgTZ7-sBigax-76" value="" style="rounded=0;dashed=0;" parent="1" vertex="1">
          <mxGeometry x="1465" y="330" width="10" height="50" as="geometry" />
        </mxCell>
        <mxCell id="gAW7ZAdqfgTZ7-sBigax-77" value="" style="rounded=0;dashed=0;" parent="1" vertex="1">
          <mxGeometry x="1475" y="340" width="10" height="35" as="geometry" />
        </mxCell>
        <mxCell id="gAW7ZAdqfgTZ7-sBigax-78" style="edgeStyle=orthogonalEdgeStyle;rounded=0;orthogonalLoop=1;jettySize=auto;html=1;entryX=1;entryY=0.75;entryDx=0;entryDy=0;" parent="1" source="gAW7ZAdqfgTZ7-sBigax-77" target="gAW7ZAdqfgTZ7-sBigax-77" edge="1">
          <mxGeometry relative="1" as="geometry">
            <Array as="points">
              <mxPoint x="1530" y="357" />
              <mxPoint x="1530" y="366" />
            </Array>
          </mxGeometry>
        </mxCell>
        <mxCell id="gAW7ZAdqfgTZ7-sBigax-79" value="&lt;span style=&quot;color: rgba(0, 0, 0, 0); font-family: monospace; font-size: 0px; text-align: start; background-color: rgb(251, 251, 251);&quot;&gt;%3CmxGraphModel%3E%3Croot%3E%3CmxCell%20id%3D%220%22%2F%3E%3CmxCell%20id%3D%221%22%20parent%3D%220%22%2F%3E%3CmxCell%20id%3D%222%22%20value%3D%22enviarNotificacion%22%20style%3D%22text%3Bhtml%3D1%3Balign%3Dcenter%3BverticalAlign%3Dmiddle%3Bresizable%3D0%3Bpoints%3D%5B%5D%3Bautosize%3D1%3BstrokeColor%3Dnone%3BfillColor%3Dnone%3B%22%20vertex%3D%221%22%20parent%3D%221%22%3E%3CmxGeometry%20x%3D%22890%22%20y%3D%22710%22%20width%3D%22120%22%20height%3D%2230%22%20as%3D%22geometry%22%2F%3E%3C%2FmxCell%3E%3C%2Froot%3E%3C%2FmxGraphModel%3E&lt;/span&gt;" style="edgeLabel;html=1;align=center;verticalAlign=middle;resizable=0;points=[];" parent="gAW7ZAdqfgTZ7-sBigax-78" vertex="1" connectable="0">
          <mxGeometry x="-0.0071" y="-1" relative="1" as="geometry">
            <mxPoint x="21" as="offset" />
          </mxGeometry>
        </mxCell>
        <mxCell id="gAW7ZAdqfgTZ7-sBigax-80" value="&lt;div style=&quot;text-align: start;&quot;&gt;&lt;font face=&quot;monospace&quot; color=&quot;rgba(0, 0, 0, 0)&quot;&gt;&lt;span style=&quot;font-size: 0px; background-color: rgb(251, 251, 251);&quot;&gt;e&lt;/span&gt;&lt;/font&gt;&lt;/div&gt;" style="edgeLabel;html=1;align=center;verticalAlign=middle;resizable=0;points=[];" parent="gAW7ZAdqfgTZ7-sBigax-78" vertex="1" connectable="0">
          <mxGeometry x="-0.0338" y="-1" relative="1" as="geometry">
            <mxPoint as="offset" />
          </mxGeometry>
        </mxCell>
        <mxCell id="gAW7ZAdqfgTZ7-sBigax-81" value="&lt;div style=&quot;text-align: left;&quot;&gt;&lt;span style=&quot;font-size: 12px; background-color: rgb(251, 251, 251);&quot;&gt;Notificacion actualizacion&lt;/span&gt;&lt;/div&gt;" style="html=1;verticalAlign=bottom;startArrow=oval;startFill=1;endArrow=block;startSize=8;curved=0;rounded=0;entryX=0.313;entryY=0.491;entryDx=0;entryDy=0;entryPerimeter=0;" parent="1" target="gAW7ZAdqfgTZ7-sBigax-76" edge="1">
          <mxGeometry x="-0.0345" width="60" relative="1" as="geometry">
            <mxPoint x="915" y="351.73" as="sourcePoint" />
            <mxPoint x="1540" y="352" as="targetPoint" />
            <mxPoint as="offset" />
          </mxGeometry>
        </mxCell>
        <mxCell id="gAW7ZAdqfgTZ7-sBigax-82" value="&lt;font style=&quot;font-size: 9px;&quot;&gt;Envio de notificaciones&lt;/font&gt;" style="text;html=1;align=center;verticalAlign=middle;resizable=0;points=[];autosize=1;strokeColor=none;fillColor=none;" parent="1" vertex="1">
          <mxGeometry x="1540" y="345" width="120" height="30" as="geometry" />
        </mxCell>
      </root>
    </mxGraphModel>
  </diagram>
  <diagram id="jBhwIpMpBLoOVxr55XA8" name="DIAGRAMA DE ACTVIDADES">
    <mxGraphModel dx="977" dy="-473" grid="1" gridSize="10" guides="1" tooltips="1" connect="1" arrows="1" fold="1" page="1" pageScale="1" pageWidth="827" pageHeight="1169" math="0" shadow="0">
      <root>
        <mxCell id="0" />
        <mxCell id="1" parent="0" />
        <mxCell id="YNNXWp5fQdTvJfn-1ce7-1" value="Administrador" style="swimlane;horizontal=0;whiteSpace=wrap;html=1;" parent="1" vertex="1">
          <mxGeometry x="120" y="1199" width="2090" height="370" as="geometry" />
        </mxCell>
        <mxCell id="YNNXWp5fQdTvJfn-1ce7-2" style="edgeStyle=orthogonalEdgeStyle;rounded=0;orthogonalLoop=1;jettySize=auto;html=1;" parent="YNNXWp5fQdTvJfn-1ce7-1" source="YNNXWp5fQdTvJfn-1ce7-3" target="YNNXWp5fQdTvJfn-1ce7-5" edge="1">
          <mxGeometry relative="1" as="geometry" />
        </mxCell>
        <mxCell id="YNNXWp5fQdTvJfn-1ce7-3" value="" style="ellipse;whiteSpace=wrap;html=1;aspect=fixed;" parent="YNNXWp5fQdTvJfn-1ce7-1" vertex="1">
          <mxGeometry x="60" y="30" width="80" height="80" as="geometry" />
        </mxCell>
        <mxCell id="YNNXWp5fQdTvJfn-1ce7-25" value="" style="edgeStyle=orthogonalEdgeStyle;rounded=0;orthogonalLoop=1;jettySize=auto;html=1;" parent="YNNXWp5fQdTvJfn-1ce7-1" source="YNNXWp5fQdTvJfn-1ce7-5" target="YNNXWp5fQdTvJfn-1ce7-24" edge="1">
          <mxGeometry relative="1" as="geometry" />
        </mxCell>
        <mxCell id="YNNXWp5fQdTvJfn-1ce7-5" value="Iniciar sesión en el sistema SSAP" style="rounded=1;whiteSpace=wrap;html=1;" parent="YNNXWp5fQdTvJfn-1ce7-1" vertex="1">
          <mxGeometry x="191" y="40" width="120" height="60" as="geometry" />
        </mxCell>
        <mxCell id="YNNXWp5fQdTvJfn-1ce7-6" value="" style="edgeStyle=orthogonalEdgeStyle;rounded=0;orthogonalLoop=1;jettySize=auto;html=1;" parent="YNNXWp5fQdTvJfn-1ce7-1" source="YNNXWp5fQdTvJfn-1ce7-7" target="YNNXWp5fQdTvJfn-1ce7-23" edge="1">
          <mxGeometry relative="1" as="geometry">
            <mxPoint x="730" y="70" as="targetPoint" />
          </mxGeometry>
        </mxCell>
        <mxCell id="YNNXWp5fQdTvJfn-1ce7-7" value="Ingresa a la tarea para gestionar fecha" style="rounded=1;whiteSpace=wrap;html=1;" parent="YNNXWp5fQdTvJfn-1ce7-1" vertex="1">
          <mxGeometry x="560" y="40" width="120" height="60" as="geometry" />
        </mxCell>
        <mxCell id="YNNXWp5fQdTvJfn-1ce7-28" value="" style="edgeStyle=orthogonalEdgeStyle;rounded=0;orthogonalLoop=1;jettySize=auto;html=1;" parent="YNNXWp5fQdTvJfn-1ce7-1" source="YNNXWp5fQdTvJfn-1ce7-23" target="YNNXWp5fQdTvJfn-1ce7-27" edge="1">
          <mxGeometry relative="1" as="geometry" />
        </mxCell>
        <mxCell id="YNNXWp5fQdTvJfn-1ce7-29" value="SI" style="edgeLabel;html=1;align=center;verticalAlign=middle;resizable=0;points=[];" parent="YNNXWp5fQdTvJfn-1ce7-28" vertex="1" connectable="0">
          <mxGeometry x="-0.0736" y="-2" relative="1" as="geometry">
            <mxPoint as="offset" />
          </mxGeometry>
        </mxCell>
        <mxCell id="SRCOcNcb6FLqzbwkZwsi-3" style="edgeStyle=orthogonalEdgeStyle;rounded=0;orthogonalLoop=1;jettySize=auto;html=1;entryX=0.5;entryY=1;entryDx=0;entryDy=0;" parent="YNNXWp5fQdTvJfn-1ce7-1" source="YNNXWp5fQdTvJfn-1ce7-23" target="SRCOcNcb6FLqzbwkZwsi-1" edge="1">
          <mxGeometry relative="1" as="geometry">
            <Array as="points">
              <mxPoint x="835" y="210" />
              <mxPoint x="1270" y="210" />
            </Array>
          </mxGeometry>
        </mxCell>
        <mxCell id="SRCOcNcb6FLqzbwkZwsi-4" value="NO" style="edgeLabel;html=1;align=center;verticalAlign=middle;resizable=0;points=[];" parent="SRCOcNcb6FLqzbwkZwsi-3" vertex="1" connectable="0">
          <mxGeometry x="-0.0966" y="-2" relative="1" as="geometry">
            <mxPoint as="offset" />
          </mxGeometry>
        </mxCell>
        <mxCell id="YNNXWp5fQdTvJfn-1ce7-23" value="¿Gestionara fecha subtarea?" style="rhombus;whiteSpace=wrap;html=1;" parent="YNNXWp5fQdTvJfn-1ce7-1" vertex="1">
          <mxGeometry x="780" y="10" width="110" height="120" as="geometry" />
        </mxCell>
        <mxCell id="YNNXWp5fQdTvJfn-1ce7-26" value="" style="edgeStyle=orthogonalEdgeStyle;rounded=0;orthogonalLoop=1;jettySize=auto;html=1;" parent="YNNXWp5fQdTvJfn-1ce7-1" source="YNNXWp5fQdTvJfn-1ce7-24" target="YNNXWp5fQdTvJfn-1ce7-7" edge="1">
          <mxGeometry relative="1" as="geometry" />
        </mxCell>
        <mxCell id="YNNXWp5fQdTvJfn-1ce7-24" value="Ingresar a la interfaz del proyecto" style="rounded=1;whiteSpace=wrap;html=1;" parent="YNNXWp5fQdTvJfn-1ce7-1" vertex="1">
          <mxGeometry x="380" y="40" width="120" height="60" as="geometry" />
        </mxCell>
        <mxCell id="SRCOcNcb6FLqzbwkZwsi-2" value="" style="edgeStyle=orthogonalEdgeStyle;rounded=0;orthogonalLoop=1;jettySize=auto;html=1;" parent="YNNXWp5fQdTvJfn-1ce7-1" source="YNNXWp5fQdTvJfn-1ce7-27" target="SRCOcNcb6FLqzbwkZwsi-1" edge="1">
          <mxGeometry relative="1" as="geometry" />
        </mxCell>
        <mxCell id="YNNXWp5fQdTvJfn-1ce7-27" value="Ingresa a la subtarea para gestionar fecha" style="rounded=1;whiteSpace=wrap;html=1;" parent="YNNXWp5fQdTvJfn-1ce7-1" vertex="1">
          <mxGeometry x="1000" y="40" width="120" height="60" as="geometry" />
        </mxCell>
        <mxCell id="SRCOcNcb6FLqzbwkZwsi-6" value="" style="edgeStyle=orthogonalEdgeStyle;rounded=0;orthogonalLoop=1;jettySize=auto;html=1;" parent="YNNXWp5fQdTvJfn-1ce7-1" source="SRCOcNcb6FLqzbwkZwsi-1" target="SRCOcNcb6FLqzbwkZwsi-5" edge="1">
          <mxGeometry relative="1" as="geometry" />
        </mxCell>
        <mxCell id="SRCOcNcb6FLqzbwkZwsi-1" value="&lt;span style=&quot;font-size:11.0pt;line-height:107%;&lt;br/&gt;font-family:&amp;quot;Calibri&amp;quot;,sans-serif;mso-ascii-theme-font:minor-latin;mso-fareast-font-family:&lt;br/&gt;Calibri;mso-fareast-theme-font:minor-latin;mso-hansi-theme-font:minor-latin;&lt;br/&gt;mso-bidi-font-family:Arial;mso-bidi-theme-font:minor-bidi;mso-ansi-language:&lt;br/&gt;ES-GT;mso-fareast-language:EN-US;mso-bidi-language:AR-SA&quot;&gt;Establecer la fecha&lt;br/&gt;límite&amp;nbsp;&lt;/span&gt;" style="rounded=1;whiteSpace=wrap;html=1;" parent="YNNXWp5fQdTvJfn-1ce7-1" vertex="1">
          <mxGeometry x="1210" y="40" width="120" height="60" as="geometry" />
        </mxCell>
        <mxCell id="SRCOcNcb6FLqzbwkZwsi-7" style="edgeStyle=orthogonalEdgeStyle;rounded=0;orthogonalLoop=1;jettySize=auto;html=1;entryX=0.75;entryY=1;entryDx=0;entryDy=0;" parent="YNNXWp5fQdTvJfn-1ce7-1" source="SRCOcNcb6FLqzbwkZwsi-5" target="SRCOcNcb6FLqzbwkZwsi-1" edge="1">
          <mxGeometry relative="1" as="geometry">
            <Array as="points">
              <mxPoint x="1480" y="160" />
              <mxPoint x="1300" y="160" />
            </Array>
          </mxGeometry>
        </mxCell>
        <mxCell id="SRCOcNcb6FLqzbwkZwsi-8" value="NO" style="edgeLabel;html=1;align=center;verticalAlign=middle;resizable=0;points=[];" parent="SRCOcNcb6FLqzbwkZwsi-7" vertex="1" connectable="0">
          <mxGeometry x="-0.1022" y="1" relative="1" as="geometry">
            <mxPoint as="offset" />
          </mxGeometry>
        </mxCell>
        <mxCell id="SRCOcNcb6FLqzbwkZwsi-5" value="¿Confirma fecha establecida?" style="rhombus;whiteSpace=wrap;html=1;" parent="YNNXWp5fQdTvJfn-1ce7-1" vertex="1">
          <mxGeometry x="1410" width="140" height="140" as="geometry" />
        </mxCell>
        <mxCell id="YNNXWp5fQdTvJfn-1ce7-15" value="ACTUALIZACIONES" style="swimlane;horizontal=0;whiteSpace=wrap;html=1;startSize=23;" parent="1" vertex="1">
          <mxGeometry x="120" y="1569" width="2090" height="370" as="geometry" />
        </mxCell>
        <mxCell id="SRCOcNcb6FLqzbwkZwsi-10" value="&lt;span style=&quot;font-size: 14.6667px;&quot;&gt;Se actualiza en BD fecha limite&lt;/span&gt;" style="rounded=1;whiteSpace=wrap;html=1;" parent="YNNXWp5fQdTvJfn-1ce7-15" vertex="1">
          <mxGeometry x="1514" y="155" width="120" height="60" as="geometry" />
        </mxCell>
        <mxCell id="SRCOcNcb6FLqzbwkZwsi-9" value="NOTIFICACIONES" style="swimlane;horizontal=0;whiteSpace=wrap;html=1;startSize=23;" parent="1" vertex="1">
          <mxGeometry x="120" y="1939" width="2090" height="370" as="geometry" />
        </mxCell>
        <mxCell id="SRCOcNcb6FLqzbwkZwsi-18" style="edgeStyle=orthogonalEdgeStyle;rounded=0;orthogonalLoop=1;jettySize=auto;html=1;" parent="SRCOcNcb6FLqzbwkZwsi-9" source="SRCOcNcb6FLqzbwkZwsi-12" edge="1">
          <mxGeometry relative="1" as="geometry">
            <mxPoint x="1830" y="210" as="targetPoint" />
            <Array as="points">
              <mxPoint x="1574" y="210" />
            </Array>
          </mxGeometry>
        </mxCell>
        <mxCell id="SRCOcNcb6FLqzbwkZwsi-12" value="&lt;span style=&quot;font-size: 14.6667px;&quot;&gt;Se Notifica Actualizacion fecha limite&lt;/span&gt;" style="rounded=1;whiteSpace=wrap;html=1;" parent="SRCOcNcb6FLqzbwkZwsi-9" vertex="1">
          <mxGeometry x="1514" y="70" width="120" height="60" as="geometry" />
        </mxCell>
        <mxCell id="SRCOcNcb6FLqzbwkZwsi-15" value="" style="endArrow=none;html=1;rounded=0;strokeWidth=9;" parent="SRCOcNcb6FLqzbwkZwsi-9" edge="1">
          <mxGeometry width="50" height="50" relative="1" as="geometry">
            <mxPoint x="1840" y="160" as="sourcePoint" />
            <mxPoint x="1840" y="269" as="targetPoint" />
          </mxGeometry>
        </mxCell>
        <mxCell id="SRCOcNcb6FLqzbwkZwsi-16" value="" style="ellipse;shape=doubleEllipse;whiteSpace=wrap;html=1;aspect=fixed;" parent="SRCOcNcb6FLqzbwkZwsi-9" vertex="1">
          <mxGeometry x="1919" y="170" width="80" height="80" as="geometry" />
        </mxCell>
        <mxCell id="SRCOcNcb6FLqzbwkZwsi-17" value="" style="endArrow=classic;html=1;rounded=0;entryX=0;entryY=0.5;entryDx=0;entryDy=0;" parent="SRCOcNcb6FLqzbwkZwsi-9" target="SRCOcNcb6FLqzbwkZwsi-16" edge="1">
          <mxGeometry width="50" height="50" relative="1" as="geometry">
            <mxPoint x="1840" y="210" as="sourcePoint" />
            <mxPoint x="1696" y="197" as="targetPoint" />
          </mxGeometry>
        </mxCell>
        <mxCell id="SRCOcNcb6FLqzbwkZwsi-11" style="edgeStyle=orthogonalEdgeStyle;rounded=0;orthogonalLoop=1;jettySize=auto;html=1;entryX=0.5;entryY=0;entryDx=0;entryDy=0;exitX=1;exitY=0.5;exitDx=0;exitDy=0;" parent="1" source="SRCOcNcb6FLqzbwkZwsi-5" target="SRCOcNcb6FLqzbwkZwsi-10" edge="1">
          <mxGeometry relative="1" as="geometry">
            <Array as="points" />
          </mxGeometry>
        </mxCell>
        <mxCell id="SRCOcNcb6FLqzbwkZwsi-14" value="SI" style="edgeLabel;html=1;align=center;verticalAlign=middle;resizable=0;points=[];" parent="SRCOcNcb6FLqzbwkZwsi-11" vertex="1" connectable="0">
          <mxGeometry x="-0.245" y="4" relative="1" as="geometry">
            <mxPoint as="offset" />
          </mxGeometry>
        </mxCell>
        <mxCell id="SRCOcNcb6FLqzbwkZwsi-13" style="edgeStyle=orthogonalEdgeStyle;rounded=0;orthogonalLoop=1;jettySize=auto;html=1;entryX=0.5;entryY=0;entryDx=0;entryDy=0;" parent="1" source="SRCOcNcb6FLqzbwkZwsi-10" target="SRCOcNcb6FLqzbwkZwsi-12" edge="1">
          <mxGeometry relative="1" as="geometry" />
        </mxCell>
      </root>
    </mxGraphModel>
  </diagram>
</mxfile>
